<svg width="100%" height="100%" viewBox="0 0 1000 1000" xmlns="http://www.w3.org/2000/svg">
  <!-- Background gradient -->
  <defs>
    <linearGradient id="bg" x1="0%" y1="0%" x2="100%" y2="100%">
      <stop offset="0%" style="stop-color:#1b4332;stop-opacity:1" />
      <stop offset="100%" style="stop-color:#2d3748;stop-opacity:1" />
    </linearGradient>
    <pattern id="pattern" x="0" y="0" width="50" height="50" patternUnits="userSpaceOnUse">
      <path d="M25,0 L50,25 L25,50 L0,25 Z" fill="#2f855a" fill-opacity="0.1" />
    </pattern>
  </defs>

  <!-- Base background -->
  <rect width="100%" height="100%" fill="url(#bg)" />
  
  <!-- Pattern overlay -->
  <rect width="100%" height="100%" fill="url(#pattern)" />
  
  <!-- Abstract farm elements -->
  <g opacity="0.15">
    <!-- Mountains -->
    <path d="M0,400 L200,200 L400,350 L600,150 L800,300 L1000,200 L1000,1000 L0,1000 Z" fill="#48bb78" />
    
    <!-- Fields -->
    <path d="M0,600 Q250,550 500,600 T1000,600 L1000,1000 L0,1000 Z" fill="#38a169" />
    
    <!-- Trees -->
    <circle cx="150" cy="500" r="30" fill="#2f855a" />
    <circle cx="350" cy="480" r="25" fill="#2f855a" />
    <circle cx="600" cy="520" r="35" fill="#2f855a" />
    <circle cx="800" cy="490" r="28" fill="#2f855a" />
    <circle cx="900" cy="510" r="32" fill="#2f855a" />
  </g>
</svg> 